<?xml version="1.0" encoding="UTF-8" standalone="no"?>
<svg
   xmlns:dc="http://purl.org/dc/elements/1.1/"
   xmlns:cc="http://creativecommons.org/ns#"
   xmlns:rdf="http://www.w3.org/1999/02/22-rdf-syntax-ns#"
   xmlns:svg="http://www.w3.org/2000/svg"
   xmlns="http://www.w3.org/2000/svg"
   xmlns:sodipodi="http://sodipodi.sourceforge.net/DTD/sodipodi-0.dtd"
   xmlns:inkscape="http://www.inkscape.org/namespaces/inkscape"
   version="1.1"
   x="0px"
   y="0px"
   viewBox="0 0 114.885 145.00949"
   enable-background="new 0 0 100 100"
   xml:space="preserve"
   id="svg2"
   inkscape:version="0.91 r13725"
   sodipodi:docname="logo.svg"
   width="114.885"
   height="145.00949"
   inkscape:export-filename="/home/liam/Downloads/noun_1092549_cc.svg.png"
   inkscape:export-xdpi="90"
   inkscape:export-ydpi="90"><metadata
     id="metadata14"><rdf:RDF><cc:Work
         rdf:about=""><dc:format>image/svg+xml</dc:format><dc:type
           rdf:resource="http://purl.org/dc/dcmitype/StillImage" /><dc:title></dc:title></cc:Work></rdf:RDF></metadata><defs
     id="defs12" /><sodipodi:namedview
     pagecolor="#ffffff"
     bordercolor="#666666"
     borderopacity="1"
     objecttolerance="10"
     gridtolerance="10"
     guidetolerance="10"
     inkscape:pageopacity="1"
     inkscape:pageshadow="2"
     inkscape:window-width="1855"
     inkscape:window-height="1056"
     id="namedview10"
     showgrid="true"
     inkscape:zoom="2.6700352"
     inkscape:cx="87.792082"
     inkscape:cy="70.770389"
     inkscape:window-x="65"
     inkscape:window-y="24"
     inkscape:window-maximized="1"
     inkscape:current-layer="svg2"
     fit-margin-top="0"
     fit-margin-left="0"
     fit-margin-right="0"
     fit-margin-bottom="0"><inkscape:grid
       type="xygrid"
       id="grid4219"
       originx="-11.610334"
       originy="-46.815872" /></sodipodi:namedview><path
     d="m 63.403163,40.390633 c 0,-5.57886 4.52295,-10.10156 10.10181,-10.10156 5.57885,0 10.10156,4.5227 10.10156,10.10156 0,5.57886 -4.52271,10.10156 -10.10156,10.10156 -5.57886,0 -10.10181,-4.5227 -10.10181,-10.10156 z m 24.33594,21.23254 0,17.07508 c 0,1.27099 -1.03052,2.30127 -2.30152,2.30127 l -23.86547,0 c -1.271,0 -2.30127,-1.03028 -2.30127,-2.30127 l 0,-17.0752 c 0,-4.83105 3.30395,-8.78381 7.34179,-8.78381 l 13.78467,0 c 4.0376,0 7.3418,3.95276 7.3418,8.78393 z m -17.29004,-5.33679 0.65771,4.29553 c 0.023,0.15027 0.23243,0.26514 0.48291,0.26514 l 3.83033,0 c 0.25073,0 0.4602,-0.11487 0.48315,-0.26514 l 0.65772,-4.29553 c 0.0261,-0.17114 -0.19776,-0.31885 -0.48316,-0.31885 l -2.57275,0 -2.573,0 c -0.2854,0 -0.50903,0.14771 -0.48291,0.31885 z m 7.20288,17.56104 -1.67749,-10.9712 c -0.0581,-0.3811 -0.38599,-0.66271 -0.77173,-0.66271 l -3.39575,0 c -0.3855,0 -0.71338,0.28161 -0.77173,0.66271 l -1.67725,10.9712 c -0.0415,0.27075 0.0623,0.54345 0.27295,0.7185 l 3.37525,2.80323 c 0.28906,0.24023 0.70849,0.24023 0.99756,0 l 3.37524,-2.80323 c 0.21069,-0.17505 0.31421,-0.44775 0.27295,-0.7185 z M 28.882661,40.390633 c 0,5.57886 4.52295,10.10156 10.1018,10.10156 5.57886,0 10.10156,-4.5227 10.10156,-10.10156 0,-5.57886 -4.5227,-10.10156 -10.10156,-10.10156 -5.57885,0 -10.1018,4.5227 -10.1018,10.10156 z m 24.33593,21.23254 0,17.07508 c 0,1.27099 -1.03052,2.30127 -2.30151,2.30127 l -23.86548,0 c -1.27099,0 -2.30127,-1.03028 -2.30127,-2.30127 l 0,-17.0752 c 0,-4.83105 3.30396,-8.78381 7.3418,-8.78381 l 13.78466,0 c 4.0376,0 7.3418,3.95276 7.3418,8.78393 z m -17.29004,-5.33679 0.65772,4.29553 c 0.0229,0.15027 0.23242,0.26514 0.48291,0.26514 l 3.83032,0 c 0.25073,0 0.4602,-0.11487 0.48315,-0.26514 l 0.65772,-4.29553 c 0.0261,-0.17114 -0.19776,-0.31885 -0.48316,-0.31885 l -2.57275,0 -2.573,0 c -0.2854,0 -0.50903,0.14771 -0.48291,0.31885 z m 7.20288,17.56104 -1.67749,-10.9712 c -0.0581,-0.3811 -0.38598,-0.66271 -0.77173,-0.66271 l -3.39575,0 c -0.3855,0 -0.71338,0.28161 -0.77173,0.66271 l -1.67724,10.9712 c -0.0415,0.27075 0.0623,0.54345 0.27295,0.7185 l 3.37524,2.80323 c 0.28906,0.24023 0.7085,0.24023 0.99756,0 l 3.37524,-2.80323 c 0.2107,-0.17505 0.31421,-0.44775 0.27295,-0.7185 z m -13.16137,-46.32789 -7.03174,-4.361322 -1.4624,0 c -3.18652,0 -5.7793,-2.59278 -5.7793,-5.7793 l 0,-11.6005803 C 15.696621,2.5917997 18.289401,0 21.475921,0 l 17.49658,0 c 3.18652,0 5.77881,2.5917997 5.77881,5.7783307 l 0,11.6005803 c 0,3.18652 -2.59229,5.7793 -5.77881,5.7793 l -6.77246,0 0.55371,2.362302 c 0.17188,0.7334 -0.1123,1.49024 -0.72363,1.92969 -0.32324,0.23242 -0.70215,0.34961 -1.08154,0.34961 -0.33838,0 -0.67676,-0.0928 -0.97852,-0.28028 z M 17.696621,17.378911 c 0,2.08399 1.69532,3.7793 3.7793,3.7793 l 2.03271,0 7.21778,4.476562 -1.04883,-4.476562 9.29492,0 c 2.08349,0 3.77881,-1.69531 3.77881,-3.7793 l 0,-11.6005803 c 0,-2.08301 -1.69532,-3.778331 -3.77881,-3.778331 l -17.49658,0 c -2.08398,0 -3.7793,1.695321 -3.7793,3.778331 l 0,11.6005803 z m 19.43213,-3.40674 c 0.99292,0 1.79785,-0.80493 1.79785,-1.79785 0,-0.99304 -0.80493,-1.79797 -1.79785,-1.79797 -0.99317,0 -1.79785,0.80493 -1.79785,1.79797 0,0.99292 0.80468,1.79785 1.79785,1.79785 z m -6.90454,0 c 0.99292,0 1.79785,-0.80493 1.79785,-1.79785 0,-0.99304 -0.80493,-1.79797 -1.79785,-1.79797 -0.99292,0 -1.79809,0.80493 -1.79809,1.79797 0,0.99292 0.80517,1.79785 1.79809,1.79785 z m -6.90454,0 c 0.99292,0 1.79785,-0.80493 1.79785,-1.79785 0,-0.99304 -0.80493,-1.79797 -1.79785,-1.79797 -0.99316,0 -1.79785,0.80493 -1.79785,1.79797 0,0.99292 0.80469,1.79785 1.79785,1.79785 z m 73.472645,-8.1938403 0,11.6005803 c 0,3.18652 -2.59228,5.7793 -5.77881,5.7793 l -1.4624,0 -7.032223,4.361322 c -0.30127,0.1875 -0.64013,0.28028 -0.97802,0.28028 -0.37989,0 -0.7583,-0.11719 -1.08203,-0.34961 -0.61133,-0.43945 -0.89502,-1.19629 -0.72315,-1.92969 l 0.55371,-2.362302 -6.77246,0 c -3.18652,0 -5.7793,-2.59278 -5.7793,-5.7793 l 0,-11.6005803 C 67.737633,2.5917997 70.330413,0 73.516933,0 l 17.496573,0 c 3.18653,0 5.77881,2.5917997 5.77881,5.7783307 z m -2,0 c 0,-2.08301 -1.69531,-3.778331 -3.77881,-3.778331 l -17.496573,0 c -2.08398,0 -3.7793,1.695321 -3.7793,3.778331 l 0,11.6005803 c 0,2.08399 1.69532,3.7793 3.7793,3.7793 l 9.29492,0 -1.04883,4.476562 7.217773,-4.476562 2.03271,0 c 2.0835,0 3.77881,-1.69531 3.77881,-3.7793 l 0,-11.6005803 z M 75.360683,10.376351 c -0.99316,0 -1.79785,0.80493 -1.79785,1.79797 0,0.99292 0.80469,1.79785 1.79785,1.79785 0.99292,0 1.79785,-0.80493 1.79785,-1.79785 0,-0.99304 -0.80493,-1.79797 -1.79785,-1.79797 z m 6.90454,0 c -0.99292,0 -1.79809,0.80493 -1.79809,1.79797 0,0.99292 0.80517,1.79785 1.79809,1.79785 0.99292,0 1.79785,-0.80493 1.79785,-1.79785 0,-0.99304 -0.80493,-1.79797 -1.79785,-1.79797 z m 6.904533,0 c -0.993157,0 -1.797843,0.80493 -1.797843,1.79797 0,0.99292 0.804686,1.79785 1.797843,1.79785 0.99292,0 1.79785,-0.80493 1.79785,-1.79785 0,-0.99304 -0.80493,-1.79797 -1.79785,-1.79797 z"
     id="path4"
     style="fill:#8357b8;fill-opacity:1"
     inkscape:connector-curvature="0" /><text
     xml:space="preserve"
     style="font-style:normal;font-weight:normal;font-size:40px;line-height:125%;font-family:sans-serif;letter-spacing:0px;word-spacing:0px;fill:#8357b8;fill-opacity:1;stroke:none;stroke-width:1px;stroke-linecap:butt;stroke-linejoin:miter;stroke-opacity:1"
     x="-2.04"
     y="112.53471"
     id="text4133"
     sodipodi:linespacing="125%"><tspan
       sodipodi:role="line"
       id="tspan4135"
       x="-2.04"
       y="112.53471"
       style="font-style:normal;font-variant:normal;font-weight:bold;font-stretch:condensed;font-family:'Fira Sans Condensed';-inkscape-font-specification:'Fira Sans Condensed, Bold Condensed';fill:#8357b8;fill-opacity:1">FLUENT </tspan></text>
<flowRoot
     xml:space="preserve"
     id="flowRoot4137"
     style="font-style:normal;font-weight:normal;font-size:40px;line-height:125%;font-family:sans-serif;letter-spacing:0px;word-spacing:0px;fill:#000000;fill-opacity:1;stroke:none;stroke-width:1px;stroke-linecap:butt;stroke-linejoin:miter;stroke-opacity:1"
     transform="translate(-75.198033,-102.99936)"><flowRegion
       id="flowRegion4139"><rect
         id="rect4141"
         width="97.192795"
         height="107.52119"
         x="15.360169"
         y="272.08685" /></flowRegion><flowPara
       id="flowPara4143"></flowPara></flowRoot><flowRoot
     xml:space="preserve"
     id="flowRoot4145"
     style="font-style:normal;font-weight:normal;font-size:40px;line-height:125%;font-family:sans-serif;letter-spacing:0px;word-spacing:0px;fill:#000000;fill-opacity:1;stroke:none;stroke-width:1px;stroke-linecap:butt;stroke-linejoin:miter;stroke-opacity:1"
     transform="translate(-75.198033,-102.99936)"><flowRegion
       id="flowRegion4147"><rect
         id="rect4149"
         width="150.68855"
         height="148.30508"
         x="6.0911016"
         y="268.37924" /></flowRegion><flowPara
       id="flowPara4151"></flowPara></flowRoot><text
     xml:space="preserve"
     style="font-style:normal;font-variant:normal;font-weight:bold;font-stretch:condensed;font-size:40px;line-height:125%;font-family:'Fira Sans Condensed';-inkscape-font-specification:'Fira Sans Condensed, Bold Condensed';letter-spacing:0px;word-spacing:0px;fill:#8357b8;fill-opacity:1;stroke:none;stroke-width:1px;stroke-linecap:butt;stroke-linejoin:miter;stroke-opacity:1"
     x="22.097094"
     y="145.00949"
     id="text4207"
     sodipodi:linespacing="125%"><tspan
       sodipodi:role="line"
       id="tspan4209"
       x="22.097094"
       y="145.00949">BDD</tspan></text>
<flowRoot
     xml:space="preserve"
     id="flowRoot4211"
     style="font-style:normal;font-weight:normal;font-size:40px;line-height:125%;font-family:sans-serif;letter-spacing:0px;word-spacing:0px;fill:#000000;fill-opacity:1;stroke:none;stroke-width:1px;stroke-linecap:butt;stroke-linejoin:miter;stroke-opacity:1"
     transform="translate(-11.610334,68.538422)"><flowRegion
       id="flowRegion4213"><rect
         id="rect4215"
         width="132.58252"
         height="89.511925"
         x="-14.606549"
         y="91.452156" /></flowRegion><flowPara
       id="flowPara4217"></flowPara></flowRoot></svg>